<?xml version="1.0" encoding="utf-8"?>
<!-- Generator: Adobe Illustrator 16.0.0, SVG Export Plug-In . SVG Version: 6.00 Build 0)  -->
<!DOCTYPE svg PUBLIC "-//W3C//DTD SVG 1.1//EN" "http://www.w3.org/Graphics/SVG/1.1/DTD/svg11.dtd">
<svg version="1.1" id="Layer_1" xmlns="http://www.w3.org/2000/svg" xmlns:xlink="http://www.w3.org/1999/xlink" x="0px" y="0px"
	 width="512px" height="512px" viewBox="0 0 512 512" enable-background="new 0 0 512 512" xml:space="preserve">
<g>
	<path d="M205.359,266.662c3.048-28.262,13.57-55.192,30.444-77.905c17.917-24.156,29.762-51.263,35.199-80.568l0.272-1.428
		c1.881-9.479,5.021-18.429,9.08-26.813c-25.222-4.319-51.909-1.84-77.231,8.848c-23.587,9.944-42.979,25.648-57.247,44.8
		c-25.085,33.684-57.695,61.432-95.043,80.663C12.425,234.02-4.28,280.039,12.514,319.834l0.017,0.048
		c16.785,39.778,61.391,59.923,102.333,46.21l0.088-0.032c34.139-11.445,69.663-15.565,105.34-13.24
		C207.473,326.278,202.125,296.688,205.359,266.662z"/>
	<path d="M487.074,228.407c-13.73-30.428-20.435-63.999-19.392-97.153c1.412-45.184-32.673-84.369-77.601-89.197
		c-45.689-4.876-86.655,26.337-94.859,70.623c-6.119,33.026-19.457,63.566-39.643,90.753c-14.251,19.2-23.146,41.976-25.72,65.859
		c-3.866,35.833,6.464,71.024,29.064,99.094c22.608,28.069,54.792,45.649,90.625,49.515c4.9,0.529,9.769,0.786,14.588,0.786
		c0.008,0,0.008,0,0.008,0c68.987,0,126.594-51.792,134.012-120.475C500.74,274.345,496.906,250.205,487.074,228.407z
		 M465.5,294.684c-6.007,55.609-55.682,96.655-112.439,90.56c-27.099-2.919-51.447-16.232-68.554-37.469
		c-17.099-21.237-24.91-47.847-21.991-74.954c1.949-18.077,8.669-35.304,19.432-49.804c23.202-31.246,38.528-66.356,45.585-104.371
		c4.748-25.648,27.1-44.254,53.132-44.254c1.949,0,3.914,0.112,5.895,0.321c27.957,3.016,49.169,27.396,48.28,55.578
		c-1.195,38.062,6.512,76.654,22.287,111.621C464.554,258.385,467.449,276.623,465.5,294.684z"/>
	<path d="M373.721,193.633c-29.185-3.144-56.428,27.381-60.816,68.137c-4.402,40.772,15.712,76.365,44.904,79.525
		c29.202,3.144,56.428-27.348,60.83-68.122C423.027,232.417,402.921,196.776,373.721,193.633z"/>
</g>
</svg>
