<?xml version="1.0" encoding="utf-8"?>
<!-- Generator: Adobe Illustrator 16.0.0, SVG Export Plug-In . SVG Version: 6.00 Build 0)  -->
<!DOCTYPE svg PUBLIC "-//W3C//DTD SVG 1.1//EN" "http://www.w3.org/Graphics/SVG/1.1/DTD/svg11.dtd">
<svg version="1.1" id="Layer_1" xmlns="http://www.w3.org/2000/svg" xmlns:xlink="http://www.w3.org/1999/xlink" x="0px" y="0px"
	 width="512px" height="512px" viewBox="0 0 512 512" enable-background="new 0 0 512 512" xml:space="preserve">
<g>
	<path d="M344.563,107.571c-6.61-15.514-14.925-30.408-24.944-44.365l-26.131-36.422c-5.075-7.083-13.222-11.284-21.9-11.284
		s-16.824,4.201-21.902,11.284l-26.131,36.422c-10.005,13.943-18.311,28.838-24.916,44.363
		c19.068,8.463,44.109,14.036,72.965,14.036C300.457,121.604,325.496,116.033,344.563,107.571z"/>
	<path d="M296.405,395.779c20.24-25.717,39.879-76.779,55.417-125.433c13.831-43.331,14.513-89.288,2.945-132.177
		c-23.388,9.957-52.057,15.779-83.355,15.779c-31.301,0-59.969-5.823-83.356-15.779c-11.567,42.889-10.886,88.846,2.945,132.177
		c15.538,48.654,35.177,99.716,55.417,125.433c-12.977,4.514-27.263,13.742-40.063,26.807
		c-19.411,19.805-22.544,50.461-22.794,65.671c-0.032,2.535,0.955,4.952,2.709,6.745c1.771,1.752,4.185,2.684,6.706,2.629
		c15.069-0.436,45.447-3.942,64.872-23.762c5.165-5.275,9.698-10.786,13.564-16.346c3.865,5.56,8.398,11.071,13.563,16.346
		c19.425,19.82,49.803,23.327,64.872,23.762c2.521,0.055,4.935-0.877,6.706-2.629c1.754-1.793,2.741-4.21,2.709-6.745
		c-0.25-15.209-3.383-45.866-22.794-65.671C323.668,409.521,309.382,400.293,296.405,395.779z"/>
	<path d="M136.671,13.654c-8.255,0-14.944,6.704-14.944,14.96l-0.016,100.85c0,1.089-0.438,2.146-1.207,2.913
		c-0.783,0.777-1.817,1.214-2.93,1.214l-14.208-0.008c-2.288,0-4.137-1.848-4.137-4.127V29.367c0-4.16-1.645-8.17-4.59-11.115
		c-2.945-2.954-6.956-4.598-11.108-4.606h-0.046c-8.663,0.008-15.681,7.034-15.681,15.705v100.106c0,1.097-0.439,2.146-1.223,2.921
		c-0.769,0.769-1.818,1.207-2.915,1.207l-14.209-0.006c-2.287,0-4.151-1.85-4.136-4.129L45.291,28.623
		c0-8.265-6.689-14.961-14.977-14.969c-3.979,0-7.77,1.565-10.574,4.37c-2.804,2.796-4.371,6.603-4.371,10.567v109.311
		c-0.012,27.36,16.126,50.941,39.4,61.783V469.63c0,7.622,3.022,14.922,8.428,20.311c5.374,5.389,12.69,8.42,20.318,8.413
		c15.87,0.008,28.717-12.861,28.717-28.723l0.015-269.952c23.268-10.844,39.401-34.421,39.401-61.777V28.615
		C151.648,20.358,144.958,13.654,136.671,13.654z"/>
	<path d="M462.213,18.298c-17.312,0-31.928,12.862-34.137,30.04L409.073,196.32c-1.504,11.734,2.115,23.546,9.933,32.437
		c7.81,8.883,19.065,13.974,30.896,13.974c0.008,0,0.021,0,0.028,0l-12.643,224.268c-0.455,8.146,2.46,16.128,8.083,22.074
		c5.594,5.922,13.395,9.274,21.572,9.282c16.371-0.008,29.672-13.285,29.688-29.679V52.725
		C496.631,33.714,481.216,18.306,462.213,18.298z"/>
</g>
</svg>
