<?xml version="1.0" encoding="iso-8859-1"?>
<!-- Generator: Adobe Illustrator 19.0.0, SVG Export Plug-In . SVG Version: 6.00 Build 0)  -->
<svg version="1.1" id="Capa_1" xmlns="http://www.w3.org/2000/svg" xmlns:xlink="http://www.w3.org/1999/xlink" x="0px" y="0px"
	 viewBox="0 0 405.729 405.729" style="enable-background:new 0 0 405.729 405.729;" xml:space="preserve">
<g>
	<g>
		<path d="M395.544,103.475c-7.68-9.216-10.752-21.504-7.68-32.768c4.096-15.872-1.024-32.256-13.312-43.008
			c-12.288-10.752-29.184-13.312-44.544-7.168l-1.536,1.024c-9.728,4.096-20.992,3.072-30.208-2.56l-1.536-1.024
			c-13.824-9.216-31.232-9.216-45.056-1.024c-13.824,8.192-22.016,23.552-20.48,39.936v2.048
			c1.024,10.752-3.584,20.992-11.776,27.648l-1.536,1.536c-12.8,10.24-17.92,26.624-14.336,42.496
			c3.584,15.872,15.872,28.16,31.744,31.744l2.048,0.512c10.24,2.56,18.944,9.728,22.528,19.968l0.512,2.048
			c6.144,15.36,19.968,25.6,35.84,27.136c1.024,0,2.56,0,3.584,0c14.848,0,28.672-7.68,36.352-20.48l1.024-1.536
			c5.632-9.216,15.36-14.848,25.6-15.36h2.048c16.384-1.024,30.208-10.752,36.864-26.112
			C408.856,132.66,406.296,115.764,395.544,103.475z M392.984,143.924c-5.12,11.776-15.36,18.944-28.16,19.968h-2.048
			c-13.824,1.024-26.624,8.704-33.792,20.48l-1.024,1.536c-6.656,10.752-17.92,16.384-30.208,15.36
			c-12.8-1.024-23.04-8.704-27.136-20.48l-0.512-2.048c-5.12-13.312-16.384-22.528-30.208-26.112l-2.048-0.512
			c-12.288-3.072-21.504-11.776-24.064-24.064c-3.072-12.288,1.024-24.576,10.752-32.256l1.536-1.536
			c10.752-8.704,16.384-22.528,15.36-36.352V55.86c-1.024-12.8,4.608-24.064,15.36-30.208c5.12-3.072,10.752-4.608,16.896-4.608
			s11.776,1.536,17.408,5.12l1.536,1.024c11.776,7.68,26.624,8.704,39.424,3.584l2.048-1.024c11.776-5.12,24.064-3.072,33.792,5.12
			c9.728,8.192,13.312,20.48,10.24,32.768c-4.096,14.848,0,30.72,9.728,41.984C396.056,119.86,398.104,132.147,392.984,143.924z"/>
	</g>
</g>
<g>
	<g>
		<path d="M349.464,96.819c-3.072-11.776-10.24-22.016-20.48-28.16c-10.24-6.656-22.528-8.704-34.304-5.632
			c-11.776,2.56-22.016,9.728-28.16,20.48c-6.656,10.24-8.704,22.528-5.632,34.304c2.56,11.776,9.728,22.016,20.48,28.16
			c7.168,4.608,15.36,6.656,24.064,6.656c3.584,0,7.168-0.512,10.24-1.024c11.776-2.56,22.016-9.728,28.16-20.48
			C350.488,120.884,352.536,108.595,349.464,96.819z M312.6,141.876c-18.944,4.608-37.888-7.68-42.496-26.624
			c-2.048-9.216-0.512-18.432,4.608-26.624c5.12-8.192,12.8-13.824,22.016-15.872c18.944-4.608,37.888,7.68,42.496,26.624
			C343.32,118.324,331.544,137.267,312.6,141.876z"/>
	</g>
</g>
<g>
	<g>
		<path d="M231.704,340.02c-9.216-7.168-11.776-12.8-14.848-18.944c-3.072-6.656-6.656-13.312-16.384-22.528
			c-10.24-9.216-17.408-12.288-24.064-14.848c-6.144-2.56-11.776-4.608-20.992-12.8c-8.704-8.192-11.264-13.824-14.336-19.456
			c-3.072-6.656-6.144-13.312-16.384-22.528s-17.408-12.288-24.064-14.848c-6.144-2.56-11.776-4.608-20.48-12.8
			s-11.264-13.824-14.336-19.456c-3.072-6.656-6.144-13.312-16.384-22.528c-2.048-2.048-5.12-1.536-7.168,0.512l-20.48,22.016
			L2.84,202.291c-0.512,0.512-0.512,0.512-0.512,1.024c-0.512,0-0.512,0.512-1.024,0.512c-2.048,2.048-1.536,5.12,0.512,7.168
			c8.704,8.192,11.264,13.824,14.336,19.456c3.072,6.656,6.144,13.312,16.384,22.528c10.24,9.216,17.408,12.288,24.064,14.848
			c6.144,2.56,11.776,4.608,20.48,12.8c8.704,8.192,11.264,13.824,14.336,19.456c3.072,6.656,6.144,13.312,16.384,22.528
			s17.408,12.288,24.064,14.848c6.144,2.56,11.776,4.608,20.992,12.8c8.704,8.192,11.264,13.824,14.336,19.456
			c3.072,6.656,6.656,13.312,16.384,22.528c1.024,1.024,2.048,1.536,3.584,1.536s2.56-0.512,3.584-1.536
			c0,0,0.512-0.512,0.512-1.024l0.512-0.512l39.424-42.496c0,0,0-0.512,0.512-0.512c0,0,0.512,0,0.512-0.512
			C234.264,345.14,233.752,342.068,231.704,340.02z M186.136,382.004c-6.144-6.144-8.192-11.264-10.752-15.872
			c-3.072-6.656-6.656-13.312-16.384-22.528c-10.24-9.216-17.408-12.288-24.064-14.848c-6.144-2.56-11.776-4.608-20.48-12.8
			c-8.704-8.192-11.264-13.824-14.336-19.456c-3.072-6.656-6.144-13.312-16.384-22.528c-10.24-9.216-17.408-12.288-24.064-14.848
			c-6.144-2.56-11.776-4.608-20.48-12.8c-8.704-8.192-11.264-13.824-14.336-19.456c-2.56-5.632-5.632-11.776-12.8-18.944
			l13.824-14.848c6.144,6.144,8.192,11.264,10.752,15.872c3.072,6.656,6.144,13.312,16.384,22.528
			c10.24,9.216,17.408,12.288,24.064,14.848c6.144,2.56,11.776,4.608,20.48,12.8c8.704,8.192,11.264,13.824,14.336,19.456
			c3.072,6.656,6.144,13.312,16.384,22.528s17.408,12.288,24.064,14.848c6.144,2.56,11.776,4.608,20.992,12.8
			c8.704,8.192,11.264,13.824,14.336,19.456c2.56,5.632,5.632,11.776,12.8,18.944L186.136,382.004z M207.128,359.988
			c-6.144-6.144-8.192-11.264-10.752-15.872c-3.072-6.656-6.656-13.312-16.384-22.528c-10.24-9.216-17.408-12.288-24.064-14.848
			c-6.144-2.56-11.776-4.608-20.992-12.8c-8.704-8.192-11.264-13.824-14.336-19.456c-3.072-6.656-6.144-13.312-16.384-22.528
			c-10.24-9.216-17.408-12.288-24.064-14.848c-6.144-2.56-11.776-4.608-20.48-12.8c-8.704-8.192-11.264-13.824-14.336-19.456
			c-2.56-5.632-5.632-11.776-12.8-18.944l13.824-14.848c5.632,6.144,8.192,11.264,10.752,15.872
			c3.072,6.656,6.144,13.312,16.384,22.528c10.24,9.216,17.408,12.288,24.064,14.848c6.144,2.56,11.776,4.608,20.48,12.8
			c8.704,8.192,11.264,13.824,14.336,19.456c3.072,6.656,6.144,13.312,16.384,22.528c10.24,9.216,17.408,12.288,24.064,14.848
			c6.144,2.56,11.776,4.608,20.992,12.8c8.704,8.192,11.264,13.824,14.336,19.456c2.56,5.632,5.632,11.776,12.8,18.944
			L207.128,359.988z"/>
	</g>
</g>
<g>
	<g>
		<path d="M364.824,341.044c-9.216-7.68-11.776-13.312-14.848-18.944c-3.072-6.656-6.656-13.312-16.384-22.528
			c-10.24-9.216-17.408-12.288-24.064-14.848c-6.144-2.56-11.776-4.608-20.992-12.8c-8.704-8.192-11.264-13.824-14.336-19.456
			c-3.072-6.656-6.144-13.312-16.384-22.528c-10.24-9.216-17.408-12.288-24.064-14.848c-6.144-2.56-11.776-4.608-20.48-12.8
			s-11.264-13.824-14.336-19.456c-3.072-6.656-6.144-13.312-16.384-22.528c-2.048-2.048-5.12-1.536-7.168,0.512l-39.424,42.496
			c-0.512,0.512-0.512,0.512-0.512,1.024c-0.512,0-0.512,0.512-1.024,0.512c-2.048,2.048-1.536,5.12,0.512,7.168
			c8.704,8.192,11.264,13.824,14.336,19.456c3.072,6.656,6.144,13.312,16.384,22.528s17.408,12.288,24.064,14.848
			c6.144,2.56,11.776,4.608,20.48,12.8c8.704,8.192,11.264,13.824,14.336,19.456c3.072,6.656,6.144,13.312,16.384,22.528
			s17.408,12.288,24.064,14.848c6.144,2.56,11.776,4.608,20.992,12.8c8.704,8.192,11.264,13.824,14.336,19.456
			c3.072,6.656,6.656,13.312,16.384,22.528c1.024,1.024,2.048,1.536,3.584,1.536s2.56-0.512,3.584-1.536
			c0,0,0.512-0.512,0.512-1.024l0.512-0.512l19.456-20.992l19.968-21.504c0,0,0-0.512,0.512-0.512c0,0,0.512,0,0.512-0.512
			C367.384,346.164,366.872,343.092,364.824,341.044z M319.256,382.516c-6.144-6.144-8.192-11.264-10.752-15.872
			c-3.072-6.656-6.656-13.312-16.384-22.528c-10.24-9.216-17.408-12.288-24.064-14.848c-6.144-2.56-11.776-4.608-20.992-12.8
			c-8.704-8.192-11.264-13.824-14.336-19.456c-3.072-6.656-6.144-13.312-16.384-22.528s-17.408-12.288-24.064-14.848
			c-6.144-2.56-11.776-4.608-20.48-12.8s-11.264-13.824-14.336-19.456c-2.56-5.632-5.632-11.776-12.8-18.944l13.824-14.848
			c6.144,6.144,8.192,11.264,10.752,15.872c3.072,6.656,6.144,13.312,16.384,22.528c10.24,9.216,17.408,12.288,24.064,14.848
			c6.144,2.56,11.776,4.608,20.48,12.8c8.704,8.192,11.264,13.824,14.336,19.456c3.072,6.656,6.144,13.312,16.384,22.528
			c10.24,9.216,17.408,12.288,24.064,14.848c6.144,2.56,11.776,4.608,20.992,12.8c8.704,8.192,11.264,13.824,14.336,19.456
			c2.56,5.632,5.632,11.776,12.8,18.944L319.256,382.516z M339.736,360.499c-6.144-6.144-8.192-11.264-10.752-15.872
			c-3.072-6.656-6.656-13.312-16.384-22.528c-10.24-9.216-17.408-12.288-24.064-14.848c-6.144-2.56-11.776-4.608-20.992-12.8
			c-8.704-8.192-11.264-13.824-14.336-19.456c-3.072-6.656-6.144-13.312-16.384-22.528c-10.24-9.216-17.408-12.288-24.064-14.848
			c-6.144-2.56-11.776-4.608-20.48-12.8c-8.704-8.192-11.264-13.824-14.336-19.456c-2.56-5.632-5.632-11.776-12.8-18.944
			l13.824-14.848c6.144,6.144,8.192,11.264,10.752,15.872c3.072,6.656,6.144,13.312,16.384,22.528s17.408,12.288,24.064,14.848
			c6.144,2.56,11.776,4.608,20.48,12.8c8.704,8.192,11.264,13.824,14.336,19.456c3.072,6.656,6.144,13.312,16.384,22.528
			s17.408,12.288,24.064,14.848c6.144,2.56,11.776,4.608,20.992,12.8c8.704,8.192,11.264,13.824,14.336,19.456
			c2.56,5.632,5.632,11.776,12.8,18.944L339.736,360.499z"/>
	</g>
</g>
<g>
</g>
<g>
</g>
<g>
</g>
<g>
</g>
<g>
</g>
<g>
</g>
<g>
</g>
<g>
</g>
<g>
</g>
<g>
</g>
<g>
</g>
<g>
</g>
<g>
</g>
<g>
</g>
<g>
</g>
</svg>
