<?xml version="1.0" encoding="utf-8"?>
<!-- Generator: Adobe Illustrator 16.0.0, SVG Export Plug-In . SVG Version: 6.00 Build 0)  -->
<!DOCTYPE svg PUBLIC "-//W3C//DTD SVG 1.1//EN" "http://www.w3.org/Graphics/SVG/1.1/DTD/svg11.dtd">
<svg version="1.1" id="Layer_1" xmlns="http://www.w3.org/2000/svg" xmlns:xlink="http://www.w3.org/1999/xlink" x="0px" y="0px"
	 width="512px" height="512px" viewBox="0 0 512 512" enable-background="new 0 0 512 512" xml:space="preserve">
<g>
	<path d="M475.956,262.324h-43.792v-28.747c0-9.522-7.714-17.236-17.236-17.236H110.193c-9.522,0-17.236,7.714-17.236,17.236v28.747
		H49.165c-13.824,0-25.024,11.208-25.024,25.023c0,13.815,11.201,25.024,25.024,25.024h43.792v66.291
		c0,38.773,31.427,70.2,70.201,70.2h198.806c38.774,0,70.201-31.427,70.201-70.2v-66.291h43.792
		c13.823,0,25.024-11.208,25.024-25.024C500.98,273.533,489.779,262.324,475.956,262.324z"/>
	<path d="M38.583,211.494l280.468-63.896c13.481-3.079,21.912-16.487,18.841-29.96c-3.063-13.489-16.528-21.912-29.952-18.849
		l-120.876,27.538l-2.41-46.29c-0.164-3.177-1.727-6.117-4.269-8.04c-2.533-1.915-5.791-2.615-8.895-1.915l-33.487,7.641
		c-3.103,0.701-5.735,2.746-7.193,5.572c-1.458,2.827-1.588,6.158-0.357,9.091l17.881,42.764L27.473,162.685
		c-13.481,3.079-21.912,16.487-18.841,29.96c2.639,11.616,12.952,19.468,24.372,19.468
		C34.845,212.113,36.718,211.918,38.583,211.494z"/>
	<path d="M392.983,178.65c14.516-1.499,32.176-5.44,43.018-15.078c10.867,9.246,26.661,11.381,39.865,4.041
		c16.951-9.457,23.037-30.873,13.588-47.832c-0.383-0.685-0.904-1.238-1.328-1.898c10.703-8.879,13.937-24.389,6.923-36.982
		c-7.934-14.223-25.886-19.33-40.116-11.396c-1.492,0.839-2.836,1.833-4.131,2.876c-11.136-7.706-26.075-9.042-38.708-2.004
		c-17.708,9.873-24.063,32.233-14.19,49.942c1.914,3.446,4.423,6.321,7.152,8.871c-2.476,10.63-7.674,26.799-17.83,38.203
		c-1.858,2.094-2.249,5.117-0.978,7.609C387.516,177.469,390.189,178.918,392.983,178.65z"/>
</g>
</svg>
