<?xml version="1.0" encoding="utf-8"?>
<!-- Generator: Adobe Illustrator 16.0.0, SVG Export Plug-In . SVG Version: 6.00 Build 0)  -->
<!DOCTYPE svg PUBLIC "-//W3C//DTD SVG 1.1//EN" "http://www.w3.org/Graphics/SVG/1.1/DTD/svg11.dtd">
<svg version="1.1" id="Layer_1" xmlns="http://www.w3.org/2000/svg" xmlns:xlink="http://www.w3.org/1999/xlink" x="0px" y="0px"
	 width="512px" height="512px" viewBox="0 0 512 512" enable-background="new 0 0 512 512" xml:space="preserve">
<g>
	<path d="M50.613,185.23c21.663,12.746,45.35,23.904,70.742,32.979c4.69,1.676,9.381,3.259,14.069,4.754
		c12.503-2.544,25.015-5.654,37.503-9.325c76.038-22.36,142.684-63.79,185.208-114.023c-42.799,29.864-97.718,52.141-159.397,61.82
		c-48.846,7.662-96.018,6.458-138.29-1.999c-6.691-1.347-13.381,2.35-15.825,8.732C42.182,174.548,44.708,181.767,50.613,185.23z"/>
	<path d="M168.134,332.09c7.134-3.459,14.209-7.09,21.204-10.901c86.008-46.863,154.069-116.489,185.812-189.1
		c-45.604,49.354-112.599,90.903-192.553,114.414c-44.471,13.073-88.557,19.241-130.126,19.241c-9.25,0-18.375-0.305-27.35-0.907
		c-0.368-0.025-0.728-0.038-1.087-0.038c-7.369,0-13.867,5.06-15.59,12.324c-1.823,7.628,2.125,15.448,9.334,18.509
		c26.531,11.25,55.102,20.391,85.296,26.923C125.031,327.305,146.803,330.446,168.134,332.09z"/>
	<path d="M480.302,129.414V31.743c0-8.548-6.926-15.482-15.49-15.482h-27.936c-8.565,0-15.49,6.934-15.49,15.482v81.885
		c-2.871,3.204-5.14,6.99-6.607,11.205C385.388,209.108,310.832,294.002,205.73,351.27
		c-55.335,30.152-112.478,48.938-166.843,56.908c-8.615,1.271-15.072,8.573-15.256,17.28c-0.184,8.715,5.939,16.293,14.503,17.924
		c31.465,6.005,64.67,9.226,99.029,9.226c200.584,0,363.128-109.074,363.128-243.658
		C500.292,181.066,493.234,154.318,480.302,129.414z"/>
</g>
</svg>
